<?xml version="1.0" standalone="no"?>
<!DOCTYPE svg PUBLIC "-//W3C//DTD SVG 20010904//EN"
 "http://www.w3.org/TR/2001/REC-SVG-20010904/DTD/svg10.dtd">
<svg version="1.0" xmlns="http://www.w3.org/2000/svg"
 width="934.000000pt" height="934.000000pt" viewBox="0 0 934.000000 934.000000"
 preserveAspectRatio="xMidYMid meet">
<metadata>
Created by potrace 1.11, written by Peter Selinger 2001-2013
</metadata>
<g transform="translate(0.000000,934.000000) scale(0.100000,-0.100000)"
fill="#000000" stroke="none">
<path d="M7135 8063 c-533 -35 -1278 -353 -2054 -876 l-193 -131 -44 50 c-25
27 -90 103 -145 169 -56 66 -120 143 -144 171 -56 66 -123 103 -159 86 -37
-17 -48 -46 -109 -292 -66 -265 -136 -501 -215 -722 l-57 -160 -160 -146
c-548 -503 -1108 -1129 -1521 -1702 -704 -976 -1094 -1923 -1034 -2512 33
-325 163 -531 407 -645 112 -52 217 -74 383 -80 372 -13 821 110 1355 372 373
183 697 383 1174 724 1355 970 1933 1292 2728 1521 74 21 248 128 248 151 0
13 -239 159 -399 244 -59 32 -174 87 -255 122 -80 35 -145 67 -144 72 1 5 58
83 126 172 661 878 1066 1704 1153 2354 21 157 14 375 -15 493 -84 337 -313
523 -692 562 -98 10 -128 10 -234 3z m-2364 -1173 c159 -171 397 -393 724
-675 191 -166 427 -386 449 -420 17 -26 17 -26 -41 -92 -127 -143 -250 -295
-359 -443 -223 -303 -388 -546 -410 -600 -12 -31 -25 -92 -29 -139 -7 -78 -6
-83 11 -78 37 11 281 36 414 43 220 10 537 -20 771 -75 263 -62 603 -192 829
-318 l64 -36 -169 -57 c-399 -134 -771 -312 -1205 -578 -214 -131 -844 -551
-1080 -720 -107 -77 -196 -139 -197 -138 -2 2 8 112 22 247 133 1311 168 2501
100 3429 -18 236 -56 573 -85 740 -11 63 -20 122 -20 130 0 8 21 -10 48 -40
26 -30 99 -111 163 -180z"/>
</g>
</svg>
